<svg fill="none" height="56" viewBox="0 0 255 56" width="255" xmlns="http://www.w3.org/2000/svg"><path clip-rule="evenodd" d="m37.0983 13.2969-.8639-.542c-1.6158-1.0139-3.4502-1.9192-5.5077-2.7127-2.0106-.7754-3.9802-1.17923-5.9133-1.2241l-.0054-.00013c-1.5891-.04532-2.8931.13826-3.9397.51433l-.0115.00413-.0116.00386c-1.0432.34713-1.9072.81421-2.6098 1.38901-.6583.5776-1.1362 1.2217-1.4528 1.9327-.3414.7666-.5211 1.4841-.5608 2.1573l-.0003.0058c-.0796 1.2308.25 2.2931.9955 3.2374.8638 1.0319 2.0278 1.9823 3.518 2.8401 1.5591.8485 3.1902 1.6744 4.8935 2.4775 2.0619.9316 4.0263 2.0343 5.8926 3.3079 2.0029 1.2844 3.6011 2.9583 4.7843 5.0124 1.2427 2.1572 1.6551 4.8781 1.3561 8.0703-.1557 1.9062-.6964 3.7957-1.6057 5.6641-.8756 1.8986-2.133 3.5845-3.7587 5.0565-1.6033 1.4954-3.5973 2.6607-5.9554 3.5125-2.3585.8695-5.0856 1.2381-8.1571 1.1392l-.0053-.0001-.0053-.0002c-2.329-.099-4.5659-.4456-6.7083-1.0424l-.0139-.0039-.0138-.0042c-2.06847-.6391-4.01894-1.4273-5.84983-2.3657l-.01495-.0077-.01469-.0082c-1.78354-.989-3.40089-2.1057-4.848877-3.3517l-.709653-.6107 4.95695-6.9462.85682.7775c.99472.9027 2.18176 1.771 3.5679 2.602 1.36833.773 2.82993 1.4119 4.38663 1.9158 1.597.4543 3.138.7251 4.6244.8175 1.9353-.0033 3.6048-.3192 5.029-.9211 1.4822-.6539 2.6268-1.5523 3.4678-2.6856l.0036-.0049c.8855-1.1784 1.3941-2.5219 1.5239-4.0554.0795-1.3022-.2439-2.3946-.9483-3.332l-.0143-.019-.0133-.0197c-.7248-1.0639-1.7173-1.9976-3.0019-2.7935l-.0178-.011-.0173-.0118c-1.2872-.8718-2.7191-1.6565-4.2988-2.3522l-.0041-.0018-.0041-.0018c-1.5128-.682-3.0709-1.4598-4.6741-2.3327l-.0059-.0032-.0058-.0033c-1.5907-.8931-3.0605-1.9122-4.4078-3.0579-1.41262-1.2011-2.51071-2.6644-3.29125-4.3785l-.0054-.0118-.0051-.012c-.75373-1.7735-.9769-3.7969-.72421-6.033.25589-2.9376 1.17646-5.51262 2.78617-7.68956 1.59859-2.16185 3.68659-3.80444 6.24119-4.92644l.0034-.0015.0034-.00147c2.5912-1.11572 5.4665-1.664008 8.6098-1.664008h.0218l.0219.000928c2.317.098417 4.456.41857 6.4113.96795 1.92.49209 3.6805 1.11001 5.2778 1.85736 1.5809.73972 3.0226 1.55759 4.322 2.45556l.8145.56279zm-6.2889-10.74756c-1.8708-.5267-3.9334-.83793-6.1879-.93369-3.022 0-5.7562.5267-8.2026 1.58009-2.3984 1.05339-4.3412 2.58559-5.8282 4.59661-1.48699 2.01101-2.35042 4.40505-2.59026 7.18215-.23985 2.1068-.02399 3.9503.64757 5.5303.71952 1.5801 1.72689 2.9208 3.02199 4.0221 1.2952 1.1012 2.7102 2.0828 4.2452 2.9447 1.583.8618 3.118 1.6279 4.605 2.2983 1.6309.7182 3.1179 1.5322 4.461 2.4419 1.3911.8619 2.4944 1.8913 3.3098 3.0884.8635 1.1491 1.2472 2.4898 1.1513 4.022-.1439 1.7237-.7195 3.2559-1.7269 4.5966-.9593 1.2928-2.2545 2.2983-3.8854 3.0165-1.583.6704-3.4058 1.0056-5.4684 1.0056-1.583-.0958-3.2139-.3831-4.8928-.8619-1.6309-.5267-3.1659-1.197-4.60493-2.011-1.0982-.6578-2.08466-1.3434-2.95937-2.0569-.27148-.2214-.53221-.4455-.78216-.6724l-3.74153 5.243c1.39108 1.1971 2.95005 2.2744 4.67691 3.232 1.77483.9098 3.66958 1.6759 5.68428 2.2983 2.0626.5746 4.2212.9098 6.4757 1.0055 2.974.0958 5.5643-.2633 7.7709-1.0773 2.2545-.814 4.1252-1.9152 5.6123-3.3038 1.5349-1.3886 2.7102-2.9686 3.5256-4.7403.8635-1.7716 1.3671-3.5432 1.511-5.3148.2878-3.0644-.1199-5.5542-1.2232-7.4695-1.1032-1.9152-2.5902-3.4714-4.461-4.6684-1.8228-1.2449-3.7415-2.3222-5.7562-3.232-1.7269-.814-3.3818-1.6519-4.9647-2.5138-1.583-.9097-2.8542-1.9392-3.8135-3.0883-.9114-1.1492-1.3191-2.4659-1.2232-3.9502.048-.814.2638-1.6519.6476-2.5138.3837-.8619.9593-1.628 1.7268-2.2983.8155-.67033 1.7988-1.19703 2.9501-1.58008 1.1992-.43093 2.6382-.62246 4.3171-.57457 2.0627.04788 4.1493.47881 6.2599 1.29279s4.0054 1.74766 5.6842 2.80106l3.3099-5.17119c-1.2472-.86186-2.6383-1.6519-4.1733-2.37012s-3.2379-1.31674-5.1086-1.79555zm28.668-.86187h13.8149c2.3504 0 4.509.31123 6.4757.93369 2.0147.62246 3.7415 1.5322 5.1806 2.72923 1.487 1.19704 2.6382 2.68136 3.4537 4.45297.8155 1.72374 1.2232 3.73474 1.2232 6.03304 0 2.1547-.3598 4.3333-1.0793 6.5358-.7195 2.1547-1.8708 4.1657-3.4537 6.0331-1.535 1.8195-3.5497 3.3038-6.044 4.4529-2.4944 1.1013-5.4924 1.6519-8.9941 1.6519h-7.483l-2.3025 19.1047h-7.1953zm4.0056 33.84873-2.3025 19.1046h-9.2691l6.6569-53.979357h14.724c2.4401 0 4.7039.322995 6.7831.980627 2.1236.65655 3.9714 1.62419 5.5248 2.91479 1.609 1.29678 2.8548 2.90546 3.7338 4.81299.8907 1.88495 1.3194 4.04935 1.3194 6.46655 0 2.2705-.3794 4.5564-1.1299 6.8539l-.0021.0064c-.764 2.2877-1.9834 4.412-3.6442 6.3713-1.6458 1.9502-3.7884 3.5196-6.398 4.7218l-.0074.0035-.0075.0033c-2.6569 1.173-5.8041 1.7396-9.4099 1.7396zm15.4627-12.3432.0039-.0052c.8495-1.1157 1.4355-2.2303 1.7787-3.3438l.0052-.017.0059-.0169c.4073-1.1746.591-2.1588.591-2.9682 0-1.1759-.2722-2.3412-.8336-3.5051-.5293-1.0973-1.3678-2.0073-2.5574-2.7282l-.0113-.0069-.0111-.0071c-1.1253-.7221-2.6866-1.12983-4.7686-1.12983h-6.4293l-2.1231 17.33993h6.106c2.0928 0 3.7666-.364 5.0689-1.0349 1.3715-.7066 2.4185-1.5701 3.1748-2.5768zm-15.5109 4.6377 2.3744-19.39196h7.3392c2.2065 0 3.9813.43094 5.3245 1.2928 1.3431.81396 2.3264 1.86736 2.95 3.16016s.9354 2.6095.9354 3.9502c0 .9576-.2159 2.0589-.6476 3.3038-.3837 1.2449-1.0313 2.4659-1.9427 3.663-.8634 1.1491-2.0386 2.1067-3.5257 2.8728-1.487.7661-3.3338 1.1492-5.5403 1.1492zm45.9502 20.8129-.004-.0034c-2.469-2.1625-4.424-4.8458-5.871-8.0327-1.462-3.2208-2.178-6.9131-2.178-11.0531 0-3.2909.625-6.64 1.859-10.0422 1.241-3.4682 3.078-6.6381 5.504-9.5059 2.449-2.94232 5.516-5.30249 9.184-7.08433 3.714-1.8525 7.975-2.763279 12.758-2.763279 3.282 0 6.468.546277 9.552 1.638349 3.142 1.0958 5.943 2.71766 8.395 4.86501 2.471 2.16462 4.426 4.87375 5.872 8.10755 1.461 3.2201 2.177 6.9114 2.177 11.0501 0 3.2916-.625 6.6643-1.859 10.1129l-.002.0044c-1.241 3.4201-3.077 6.5872-5.5 9.4992l-.002.0033-.003.0033c-2.45 2.8948-5.517 5.23-9.184 7.0109-3.668 1.8051-7.93 2.6899-12.756 2.6899-3.282 0-6.468-.5466-9.553-1.6392-3.094-1.0958-5.891-2.7162-8.385-4.8575zm30.246 2.8884c3.55-1.7238 6.5-3.9742 8.851-6.7513 2.35-2.825 4.125-5.8894 5.324-9.1932 1.199-3.3517 1.799-6.6077 1.799-9.7678 0-4.0221-.696-7.5653-2.087-10.6297-1.391-3.1123-3.262-5.69787-5.612-7.75676-2.351-2.0589-5.037-3.61505-8.059-4.66843-2.974-1.05339-6.044-1.58009-9.21-1.58009-4.653 0-8.754.8858-12.304 2.65741-3.549 1.72373-6.499 3.9981-8.85 6.82307-2.35 2.7771-4.125 5.8416-5.324 9.1932-1.199 3.3039-1.799 6.5358-1.799 9.696 0 4.022.696 7.5653 2.087 10.6297s3.261 5.626 5.612 7.6849c2.398 2.0589 5.085 3.6151 8.059 4.6685s6.044 1.58 9.209 1.58c4.701 0 8.803-.8618 12.304-2.5855zm2.87-11.8485.004-.0055c1.65-2.0125 2.858-4.1994 3.632-6.564l.003-.0084.003-.0084c.831-2.395 1.239-4.6996 1.239-6.9184 0-2.3617-.432-4.5473-1.286-6.5677l-.006-.0125-.005-.0127c-.814-2.077-1.987-3.8998-3.521-5.4765l-.005-.0052-.005-.0052c-1.535-1.6217-3.338-2.8825-5.419-3.7856l-.013-.0055-.012-.0057c-2.008-.93557-4.256-1.41201-6.761-1.41201-3.469 0-6.421.64623-8.887 1.89931l-.003.0017-.004.0017c-2.466 1.2311-4.506 2.8405-6.135 4.8259-1.603 2.0124-2.789 4.2011-3.565 6.5695-.784 2.3965-1.172 4.7309-1.172 7.007 0 2.3182.409 4.5133 1.225 6.5929.815 2.0811 1.967 3.9057 3.455 5.4822 1.538 1.579 3.324 2.8437 5.364 3.7957 2.061.8927 4.338 1.346 6.844 1.346 3.472 0 6.427-.6231 8.894-1.8309 2.517-1.2801 4.554-2.913 6.132-4.8922zm-5.676 5.8154c-2.638 1.2928-5.756 1.9392-9.354 1.9392-2.638 0-5.06-.4788-7.267-1.4364-2.158-1.0056-4.053-2.3462-5.684-4.0221-1.583-1.6758-2.806-3.615-3.67-5.8176-.863-2.2025-1.295-4.5247-1.295-6.9667 0-2.3941.408-4.836 1.223-7.3258.816-2.4899 2.063-4.7882 3.742-6.895 1.727-2.1067 3.885-3.8065 6.476-5.09932 2.638-1.34067 5.756-2.01101 9.353-2.01101 2.639 0 5.037.50275 7.196 1.50826 2.206.95767 4.125 2.29827 5.756 4.02207 1.631 1.6758 2.878 3.615 3.741 5.8175.912 2.1547 1.368 4.477 1.368 6.9668 0 2.3462-.432 4.7642-1.296 7.254-.815 2.4898-2.086 4.7881-3.813 6.8949-1.679 2.1068-3.838 3.8305-6.476 5.1712zm33.926-44.837457h36.61l-1.123 8.875147h-13.812l-5.54 45.10421h-9.267l5.541-45.10421h-13.532zm13.57 7.849127-5.54 45.10423h7.195l5.54-45.10423h13.815l.864-6.8231h-34.537l-.864 6.8231zm65.726 4.78633-.864-.542c-1.616-1.0139-3.45-1.9192-5.508-2.7127-2.01-.7754-3.98-1.17923-5.913-1.2241l-.006-.00013c-1.589-.04533-2.893.13826-3.939.51433l-.012.00413-.011.00386c-1.044.34713-1.907.81421-2.61 1.38901-.658.5776-1.136 1.2217-1.453 1.9327-.341.7666-.521 1.4841-.561 2.1573v.0058c-.08 1.2308.25 2.293.995 3.2374.864 1.0318 2.028 1.9823 3.519 2.8401 1.558.8485 3.19 1.6744 4.893 2.4774 2.062.9316 4.026 2.0343 5.892 3.3079 2.003 1.2844 3.602 2.9584 4.785 5.0125 1.243 2.1572 1.655 4.8779 1.356 8.07-.156 1.9062-.696 3.7958-1.606 5.6643-.875 1.8987-2.133 3.5848-3.759 5.0569-1.603 1.4952-3.597 2.6604-5.955 3.5122-2.358.8695-5.085 1.2381-8.157 1.1392l-.005-.0001-.006-.0002c-2.328-.099-4.565-.4456-6.708-1.0424l-.014-.0039-.013-.0042c-2.069-.6391-4.019-1.4273-5.85-2.3657l-.015-.0077-.015-.0082c-1.784-.989-3.401-2.1057-4.849-3.3517l-.709-.6107 4.956-6.9462.857.7775c.995.9027 2.182 1.771 3.568 2.602 1.368.773 2.83 1.4119 4.387 1.9158 1.597.4543 3.138.7251 4.624.8175 1.935-.0034 3.605-.3192 5.029-.921 1.482-.6539 2.627-1.5524 3.468-2.6857l.004-.0049c.885-1.1784 1.394-2.5218 1.524-4.0553.079-1.3022-.244-2.3947-.949-3.3321l-.014-.019-.013-.0197c-.725-1.0639-1.718-1.9976-3.002-2.7935l-.018-.011-.017-.0118c-1.288-.8718-2.72-1.6565-4.299-2.3522l-.004-.0018-.004-.0018c-1.513-.682-3.071-1.4598-4.674-2.3327l-.006-.0032-.006-.0033c-1.591-.8931-3.061-1.9122-4.408-3.0579-1.413-1.2011-2.511-2.6644-3.291-4.3785l-.006-.0118-.005-.012c-.754-1.7736-.977-3.7973-.724-6.0336.256-2.9373 1.177-5.51216 2.786-7.68896 1.599-2.16185 3.687-3.80444 6.241-4.92644l.004-.0015.003-.00147c2.591-1.11572 5.467-1.664008 8.61-1.664008h.022l.022.000928c2.317.098417 4.456.41857 6.411.96795 1.92.49209 3.681 1.11001 5.278 1.85736 1.581.73972 3.022 1.55759 4.322 2.45556l.814.56279zm-6.289-10.74756c-1.871-.5267-3.934-.83793-6.188-.93369-3.022 0-5.756.5267-8.203 1.58009-2.398 1.05339-4.341 2.58559-5.828 4.59661-1.487 2.01101-2.35 4.40505-2.59 7.18215-.24 2.1068-.024 3.9503.648 5.5303.719 1.5801 1.726 2.9208 3.022 4.0221 1.295 1.1012 2.71 2.0828 4.245 2.9447 1.583.8618 3.118 1.6279 4.605 2.2983 1.631.7182 3.118 1.5322 4.461 2.4419 1.391.8619 2.494 1.8913 3.31 3.0884.863 1.1491 1.247 2.4898 1.151 4.022-.144 1.7237-.72 3.2559-1.727 4.5966-.959 1.2928-2.255 2.2983-3.886 3.0165-1.582.6704-3.405 1.0056-5.468 1.0056-1.583-.0958-3.214-.3831-4.893-.8619-1.631-.5267-3.166-1.197-4.605-2.011-1.098-.6578-2.084-1.3434-2.959-2.0569-.271-.2214-.532-.4455-.782-.6724l-3.742 5.243c1.391 1.1971 2.95 2.2744 4.677 3.232 1.775.9098 3.67 1.6759 5.684 2.2983 2.063.5746 4.222.9098 6.476 1.0055 2.974.0958 5.565-.2633 7.771-1.0773 2.255-.814 4.125-1.9152 5.612-3.3038 1.535-1.3886 2.711-2.9686 3.526-4.7403.863-1.7716 1.367-3.5432 1.511-5.3148.288-3.0644-.12-5.5542-1.223-7.4695-1.103-1.9152-2.59-3.4714-4.461-4.6684-1.823-1.2449-3.742-2.3222-5.756-3.232-1.727-.814-3.382-1.6519-4.965-2.5138-1.583-.9097-2.854-1.9392-3.814-3.0883-.911-1.1492-1.319-2.4659-1.223-3.9502.048-.814.264-1.6519.648-2.5138s.959-1.628 1.727-2.2983c.815-.67033 1.798-1.19703 2.95-1.58008 1.199-.43093 2.638-.62246 4.317-.57457 2.062.04788 4.149.47881 6.26 1.29279 2.11.81398 4.005 1.74766 5.684 2.80106v-.0007l3.31-5.17034c-1.248-.86186-2.639-1.65205-4.173-2.37027-1.535-.71822-3.238-1.31674-5.109-1.79555z" fill="#fff" fill-rule="evenodd"/></svg>